HIERARCHY
ROOT Hips
{
	OFFSET -0.001795 -0.223333 0.028219
	CHANNELS 6 Xposition Yposition Zposition Zrotation Yrotation Xrotation 
	JOINT LeftUpLeg
	{
		OFFSET 0.069520 -0.091406 -0.006815
		CHANNELS 3 Zrotation Yrotation Xrotation
		JOINT LeftLeg
		{
			OFFSET 0.034277 -0.375199 -0.004496
			CHANNELS 3 Zrotation Yrotation Xrotation
			JOINT LeftFoot
			{
				OFFSET -0.013596 -0.397961 -0.043693
				CHANNELS 3 Zrotation Yrotation Xrotation
				JOINT LeftToe
				{
					OFFSET 0.026358 -0.055791 0.119288
					CHANNELS 3 Zrotation Yrotation Xrotation
					End Site
					{
						OFFSET 0.000000 0.000000 0.000000
					}
				}
			}
		}
	}
	JOINT RightUpLeg
	{
		OFFSET -0.067670 -0.090522 -0.004320
		CHANNELS 3 Zrotation Yrotation Xrotation
		JOINT RightLeg
		{
			OFFSET -0.038290 -0.382569 -0.008850
			CHANNELS 3 Zrotation Yrotation Xrotation
			JOINT RightFoot
			{
				OFFSET 0.015774 -0.398415 -0.042312
				CHANNELS 3 Zrotation Yrotation Xrotation
				JOINT RightToe
				{
					OFFSET -0.025372 -0.048144 0.123348
					CHANNELS 3 Zrotation Yrotation Xrotation
					End Site
					{
						OFFSET 0.000000 0.000000 0.000000
					}
				}
			}
		}
	}
	JOINT Spine
	{
		OFFSET -0.002533 0.108963 -0.026696
		CHANNELS 3 Zrotation Yrotation Xrotation
		JOINT Spine1
		{
			OFFSET 0.005487 0.135180 0.001092
			CHANNELS 3 Zrotation Yrotation Xrotation
			JOINT Spine2
			{
				OFFSET 0.001457 0.052922 0.025425
				CHANNELS 3 Zrotation Yrotation Xrotation
				JOINT Neck
				{
					OFFSET -0.002778 0.213870 -0.042857
					CHANNELS 3 Zrotation Yrotation Xrotation
					JOINT Head
					{
						OFFSET 0.005152 0.064970 0.051349
						CHANNELS 3 Zrotation Yrotation Xrotation
						End Site
						{
							OFFSET 0.000000 0.000000 0.000000
						}
					}
				}
				JOINT LeftShoulder
				{
					OFFSET 0.078845 0.121749 -0.034090
					CHANNELS 3 Zrotation Yrotation Xrotation
					JOINT LeftArm
					{
						OFFSET 0.090977 0.030469 -0.008868
						CHANNELS 3 Zrotation Yrotation Xrotation
						JOINT LeftForeArm
						{
							OFFSET 0.259612 -0.012772 -0.027456
							CHANNELS 3 Zrotation Yrotation Xrotation
							JOINT LeftHand
							{
								OFFSET 0.249234 0.008986 -0.001171
								CHANNELS 3 Zrotation Yrotation Xrotation
								End Site
								{
									OFFSET 0.000000 0.000000 0.000000
								}
							}
						}
					}
				}
				JOINT RightShoulder
				{
					OFFSET -0.081759 0.118833 -0.038615
					CHANNELS 3 Zrotation Yrotation Xrotation
					JOINT RightArm
					{
						OFFSET -0.096012 0.032551 -0.009143
						CHANNELS 3 Zrotation Yrotation Xrotation
						JOINT RightForeArm
						{
							OFFSET -0.253742 -0.013329 -0.021401
							CHANNELS 3 Zrotation Yrotation Xrotation
							JOINT RightHand
							{
								OFFSET -0.255298 0.007772 -0.005559
								CHANNELS 3 Zrotation Yrotation Xrotation
								End Site
								{
									OFFSET 0.000000 0.000000 0.000000
								}
							}
						}
					}
				}
			}
		}
	}
}
MOTION
Frames: 7
Frame Time: 0.050000
0.000577 0.937246 -0.027893 -2.307490 -9.821391 4.183860 5.329111 -0.002594 0.178683 -1.518825 0.570433 -12.877025 -2.242353 -0.443988 11.583454 0.000000 0.000000 0.000000 -1.169216 0.456887 -4.640676 0.149179 -0.208111 -5.741179 -4.792900 -14.242459 9.137620 0.000000 0.000000 0.000000 -4.534224 0.142366 -0.467890 -1.980114 1.135361 5.896544 3.366358 1.725950 3.779981 -1.809180 1.899652 -17.542661 0.000000 0.000000 0.000000 -29.475779 -19.930928 12.036447 -31.809544 -10.213982 -1.683755 -38.439908 -68.087703 30.294139 0.000000 0.000000 0.000000 32.747092 29.890468 16.679484 29.278464 9.592830 -0.248156 -6.795058 81.220818 -3.295645 0.000000 0.000000 0.000000 
0.000806 0.937296 -0.029871 -2.362022 -10.025037 4.419795 5.522852 -0.020306 -0.168875 -1.563359 0.585460 -13.151348 -2.386735 -0.618009 11.878627 0.000000 0.000000 0.000000 -1.284921 0.503408 -5.132205 0.343018 -0.207928 -5.519930 -5.132665 -14.953677 9.430754 0.000000 0.000000 0.000000 -4.686678 0.151461 -0.234437 -2.174526 1.257561 6.207928 3.546006 1.662768 3.367715 -2.497363 2.274650 -17.418021 0.000000 0.000000 0.000000 -29.863625 -19.954728 12.191201 -31.519581 -10.237245 -1.665990 -37.480934 -67.089822 29.062366 0.000000 0.000000 0.000000 33.375571 29.855507 16.699839 30.232296 9.101705 -0.295284 -8.912553 80.251324 -5.049240 0.000000 0.000000 0.000000 
0.001337 0.937299 -0.032202 -2.363827 -10.234350 4.618709 5.689085 -0.037988 -0.556072 -1.538687 0.592032 -13.244123 -2.546076 -0.824896 12.152810 0.000000 0.000000 0.000000 -1.370485 0.556627 -5.702949 0.551358 -0.206773 -5.224359 -5.456840 -15.570176 9.444651 0.000000 0.000000 0.000000 -4.966822 0.166037 0.048125 -2.021609 1.195771 6.610667 3.462023 1.433059 2.892115 -2.772765 2.398516 -17.149496 0.000000 0.000000 0.000000 -30.196655 -19.952150 12.359756 -31.071199 -10.385370 -1.622329 -34.880394 -66.285460 26.815857 0.000000 0.000000 0.000000 34.117823 29.793819 16.662302 31.634012 8.220142 -0.418602 -10.008884 79.209803 -5.928275 0.000000 0.000000 0.000000 
0.002121 0.937418 -0.034646 -2.494032 -10.539521 4.770368 5.907733 -0.049261 -0.908872 -1.469108 0.599015 -13.328003 -2.898441 -1.270506 12.705198 0.000000 0.000000 0.000000 -1.315908 0.607196 -6.248611 0.705035 -0.202743 -4.884080 -5.608208 -15.902762 9.587690 0.000000 0.000000 0.000000 -5.105874 0.176492 0.570579 -2.171051 1.307720 7.090963 3.723308 1.079449 2.303327 -3.629809 2.840714 -17.324776 0.000000 0.000000 0.000000 -30.628894 -20.253361 12.878655 -31.101849 -10.872992 -1.540258 -31.053255 -65.242357 23.733633 0.000000 0.000000 0.000000 34.682125 29.803712 16.494224 33.305345 7.321902 -0.524964 -6.157866 77.937054 -2.848523 0.000000 0.000000 0.000000 
0.003217 0.937104 -0.037086 -2.509806 -10.774228 4.835098 5.979040 -0.055496 -1.120622 -1.490556 0.605313 -13.390841 -3.208295 -1.770221 12.836829 0.000000 0.000000 0.000000 -1.305323 0.631837 -6.511133 0.804723 -0.199482 -4.628194 -5.649081 -15.948776 9.360018 0.000000 0.000000 0.000000 -5.194520 0.185489 1.148462 -2.114194 1.301418 7.490556 3.557689 0.741957 1.829313 -3.853847 2.930582 -17.238915 0.000000 0.000000 0.000000 -30.700892 -20.683870 13.355757 -31.335605 -11.843203 -1.337543 -26.258830 -64.339966 20.191739 0.000000 0.000000 0.000000 35.531985 29.850083 16.497432 34.464585 5.635162 -0.871234 0.499763 76.907966 2.351997 0.000000 0.000000 0.000000 
0.004339 0.936735 -0.039406 -2.456849 -11.351448 4.862893 5.769856 -0.055340 -1.200213 -1.258253 0.614477 -13.481829 -3.428995 -2.137419 13.049296 0.000000 0.000000 0.000000 -1.399829 0.665992 -6.873678 0.817941 -0.187741 -4.213827 -5.633163 -15.931929 9.226997 0.000000 0.000000 0.000000 -5.389792 0.202276 1.660518 -2.214995 1.387397 7.712926 3.580040 0.515913 1.754926 -4.598528 3.308105 -17.952553 0.000000 0.000000 0.000000 -30.832949 -21.431680 14.135522 -31.589546 -13.237236 -1.065699 -21.882716 -62.727041 16.833599 0.000000 0.000000 0.000000 35.852581 30.045567 16.462376 35.626991 4.504602 -1.118897 9.655119 75.545276 9.210819 0.000000 0.000000 0.000000 
0.005431 0.936180 -0.041600 -2.388193 -11.691387 4.775577 5.877650 -0.047073 -1.184846 -1.360779 0.624317 -13.567651 -3.535091 -2.290456 13.223834 0.000000 0.000000 0.000000 -1.469977 0.678688 -7.012752 0.854309 -0.182913 -3.999707 -5.492005 -15.641482 8.977481 0.000000 0.000000 0.000000 -5.536646 0.217196 2.295308 -2.324724 1.470984 7.932519 3.539192 -0.186569 1.473961 -5.087653 3.500846 -18.315578 0.000000 0.000000 0.000000 -30.632492 -21.886502 14.774850 -31.599524 -15.005376 -0.721772 -17.514977 -61.424467 13.812505 0.000000 0.000000 0.000000 36.343491 30.475839 16.443399 36.219801 3.057423 -1.380282 18.526380 73.922012 15.417942 0.000000 0.000000 0.000000 
